<svg class="border shadow-md" viewBox="0 0 1351.68 760.32" style="width: 1351.68px; height: 760.32px;" xmlns="http://www.w3.org/2000/svg" preserveAspectRatio="none"><rect class="bg" id="bg" x="0" y="0" width="1351.68" height="760.32" fill="#1C1C27"/><path d="M 0 -69.12 L 0 -69.12&#10;                L 138.00 -34.56&#10;                L 337.92 -69.12 L 337.92 -69.12&#10;                L 566.92 -7.12&#10;                L 675.84 -69.12 L 675.84 -69.12&#10;                L 788.48 -7.12&#10;                L 1013.76 -69.12 L 1013.76 -69.12&#10;                L 1126.40 -34.56&#10;                L 1351.68 -69.12 L 1351.68 -69.12&#10;                L 1534.68 -5.12&#10;                L 1689.6000000000001 -69.12  H 1401.68 V 860.32 H -100 V -69.12100 H 0 Z" fill="none" stroke="#E600FF" stroke-width="1"/><path d="M 0 0 L 0 0.00&#10;                L 147.00 34.56&#10;                L 337.92 0.00 L 337.92 0.00&#10;                L 504.92 34.56&#10;                L 675.84 0.00 L 675.84 0.00&#10;                L 788.48 34.56&#10;                L 1013.76 0.00 L 1013.76 0.00&#10;                L 1126.40 34.56&#10;                L 1351.68 0.00 L 1351.68 0.00&#10;                L 1464.32 34.56&#10;                L 1689.6000000000001 0.00  H 1401.68 V 860.32 H -100 V 0.00100 H 0 Z" fill="none" stroke="#dd06fc" stroke-width="1"/><path d="M 0 69.12 L 0 69.12&#10;                L 112.64 112.12&#10;                L 337.92 69.12 L 337.92 69.12&#10;                L 450.56 125.12&#10;                L 675.84 69.12 L 675.84 69.12&#10;                L 788.48 137.12&#10;                L 1013.76 69.12 L 1013.76 69.12&#10;                L 1138.76 103.68&#10;                L 1351.68 69.12 L 1351.68 69.12&#10;                L 1464.32 103.68&#10;                L 1689.6000000000001 69.12  H 1401.68 V 860.32 H -100 V 69.12100 H 0 Z" fill="none" stroke="#d40cf9" stroke-width="1"/><path d="M 0 138.24 L 0 138.24&#10;                L 137.00 174.24&#10;                L 337.92 138.24 L 337.92 138.24&#10;                L 484.92 172.80&#10;                L 675.84 138.24 L 675.84 138.24&#10;                L 788.48 199.24&#10;                L 1013.76 138.24 L 1013.76 138.24&#10;                L 1126.40 194.24&#10;                L 1351.68 138.24 L 1351.68 138.24&#10;                L 1535.68 172.80&#10;                L 1689.6000000000001 138.24  H 1401.68 V 860.32 H -100 V 138.24100 H 0 Z" fill="none" stroke="#cb12f6" stroke-width="1"/><path d="M 0 207.36 L 0 207.36&#10;                L 121.00 275.36&#10;                L 337.92 207.36 L 337.92 207.36&#10;                L 512.92 264.36&#10;                L 675.84 207.36 L 675.84 207.36&#10;                L 788.48 241.92&#10;                L 1013.76 207.36 L 1013.76 207.36&#10;                L 1136.76 241.92&#10;                L 1351.68 207.36 L 1351.68 207.36&#10;                L 1464.32 241.92&#10;                L 1689.6000000000001 207.36  H 1401.68 V 860.32 H -100 V 207.36100 H 0 Z" fill="none" stroke="#c218f3" stroke-width="1"/><path d="M 0 276.48 L 0 276.48&#10;                L 112.64 319.48&#10;                L 337.92 276.48 L 337.92 276.48&#10;                L 450.56 338.48&#10;                L 675.84 276.48 L 675.84 276.48&#10;                L 788.48 311.04&#10;                L 1013.76 276.48 L 1013.76 276.48&#10;                L 1147.76 311.04&#10;                L 1351.68 276.48 L 1351.68 276.48&#10;                L 1495.68 311.04&#10;                L 1689.6000000000001 276.48  H 1401.68 V 860.32 H -100 V 276.48100 H 0 Z" fill="none" stroke="#b91ef0" stroke-width="1"/><path d="M 0 345.6 L 0 345.60&#10;                L 112.64 380.16&#10;                L 337.92 345.60 L 337.92 345.60&#10;                L 483.92 380.16&#10;                L 675.84 345.60 L 675.84 345.60&#10;                L 798.84 384.60&#10;                L 1013.76 345.60 L 1013.76 345.60&#10;                L 1259.76 380.16&#10;                L 1351.68 345.60 L 1351.68 345.60&#10;                L 1591.68 380.16&#10;                L 1689.6000000000001 345.60  H 1401.68 V 860.32 H -100 V 345.60100 H 0 Z" fill="none" stroke="#b024ed" stroke-width="1"/><path d="M 0 414.72 L 0 414.72&#10;                L 204.00 449.28&#10;                L 337.92 414.72 L 337.92 414.72&#10;                L 464.92 449.72&#10;                L 675.84 414.72 L 675.84 414.72&#10;                L 788.48 469.72&#10;                L 1013.76 414.72 L 1013.76 414.72&#10;                L 1233.76 480.72&#10;                L 1351.68 414.72 L 1351.68 414.72&#10;                L 1464.32 473.72&#10;                L 1689.6000000000001 414.72  H 1401.68 V 860.32 H -100 V 414.72100 H 0 Z" fill="none" stroke="#a72aea" stroke-width="1"/><path d="M 0 483.84000000000003 L 0 483.84&#10;                L 204.00 518.40&#10;                L 337.92 483.84 L 337.92 483.84&#10;                L 450.56 518.40&#10;                L 675.84 483.84 L 675.84 483.84&#10;                L 802.84 518.40&#10;                L 1013.76 483.84 L 1013.76 483.84&#10;                L 1198.76 525.84&#10;                L 1351.68 483.84 L 1351.68 483.84&#10;                L 1568.68 518.40&#10;                L 1689.6000000000001 483.84  H 1401.68 V 860.32 H -100 V 483.84100 H 0 Z" stroke="#9e30e7" stroke-width="1" fill="none"/><path d="M 0 552.96 L 0 552.96&#10;                L 112.64 615.96&#10;                L 337.92 552.96 L 337.92 552.96&#10;                L 450.56 599.96&#10;                L 675.84 552.96 L 675.84 552.96&#10;                L 845.84 587.52&#10;                L 1013.76 552.96 L 1013.76 552.96&#10;                L 1139.76 602.96&#10;                L 1351.68 552.96 L 1351.68 552.96&#10;                L 1464.32 587.52&#10;                L 1689.6000000000001 552.96  H 1401.68 V 860.32 H -100 V 552.96100 H 0 Z" stroke="#9536e4" stroke-width="1" fill="none"/><path d="M 0 622.08 L 0 622.08&#10;                L 124.00 688.08&#10;                L 337.92 622.08 L 337.92 622.08&#10;                L 494.92 668.08&#10;                L 675.84 622.08 L 675.84 622.08&#10;                L 802.84 686.08&#10;                L 1013.76 622.08 L 1013.76 622.08&#10;                L 1148.76 684.08&#10;                L 1351.68 622.08 L 1351.68 622.08&#10;                L 1491.68 656.64&#10;                L 1689.6000000000001 622.08  H 1401.68 V 860.32 H -100 V 622.08100 H 0 Z" stroke="#8c3ce1" stroke-width="1" fill="none"/><path d="M 0 691.2 L 0 691.20&#10;                L 188.00 725.76&#10;                L 337.92 691.20 L 337.92 691.20&#10;                L 450.56 725.76&#10;                L 675.84 691.20 L 675.84 691.20&#10;                L 905.84 746.20&#10;                L 1013.76 691.20 L 1013.76 691.20&#10;                L 1126.40 748.20&#10;                L 1351.68 691.20 L 1351.68 691.20&#10;                L 1484.68 740.20&#10;                L 1689.6000000000001 691.20  H 1401.68 V 860.32 H -100 V 691.20100 H 0 Z" stroke="#8342de" stroke-width="1" fill="none"/></svg>